<?xml version="1.0" encoding="UTF-8"?>
<svg id="_Слой_1" data-name="Слой_1" xmlns="http://www.w3.org/2000/svg" version="1.1" viewBox="0 0 30 30">
  <!-- Generator: Adobe Illustrator 29.8.2, SVG Export Plug-In . SVG Version: 2.1.1 Build 3)  -->
  <defs>
    <style>
      .st0 {
        fill: #fff;
      }

      .st1 {
        fill: none;
        stroke: #fff;
        stroke-miterlimit: 10;
        stroke-width: 2px;
      }
    </style>
  </defs>
  <path class="st0" d="M23.42,3.04c.33,0,.6.27.6.6v20.76c0,.33-.27.6-.6.6H6.58c-.33,0-.6-.27-.6-.6V3.64c0-.33.27-.6.6-.6h16.84M23.42,1.04H6.58c-1.44,0-2.6,1.16-2.6,2.6v20.76c0,1.44,1.16,2.6,2.6,2.6h16.84c1.44,0,2.6-1.16,2.6-2.6V3.64c0-1.44-1.16-2.6-2.6-2.6h0Z"/>
  <line class="st1" x1="8.45" y1="26.12" x2="8.45" y2="27.87"/>
  <line class="st1" x1="21.67" y1="26" x2="21.67" y2="28"/>
  <line class="st1" x1="5.21" y1="6.49" x2="24.89" y2="6.49"/>
  <line class="st1" x1="24.74" y1="19.3" x2="5.35" y2="19.3"/>
  <circle class="st1" cx="8.45" cy="22.71" r=".5"/>
  <circle class="st1" cx="21.67" cy="22.71" r=".5"/>
</svg>